<svg width="188" height="37" viewBox="0 0 188 37" fill="none" xmlns="http://www.w3.org/2000/svg">
<path d="M54.3558 33V2.45454H65.5419C67.7095 2.45454 69.5043 2.8125 70.9261 3.52841C72.348 4.23437 73.4119 5.19389 74.1179 6.40696C74.8239 7.61008 75.1768 8.96733 75.1768 10.4787C75.1768 11.7514 74.9432 12.8253 74.4759 13.7003C74.0085 14.5653 73.3821 15.2614 72.5966 15.7884C71.821 16.3054 70.9659 16.6832 70.0312 16.9219V17.2202C71.0455 17.2699 72.0348 17.598 72.9993 18.2045C73.9737 18.8011 74.7791 19.6513 75.4155 20.755C76.0518 21.8587 76.37 23.201 76.37 24.782C76.37 26.343 76.0021 27.745 75.2663 28.9879C74.5405 30.2209 73.4169 31.2003 71.8956 31.9261C70.3743 32.642 68.4304 33 66.0639 33H54.3558ZM58.9645 29.0476H65.6165C67.8239 29.0476 69.4048 28.62 70.3594 27.7649C71.3139 26.9098 71.7912 25.8409 71.7912 24.5582C71.7912 23.5937 71.5476 22.7088 71.0604 21.9034C70.5732 21.098 69.8771 20.4567 68.9723 19.9794C68.0774 19.5021 67.0135 19.2635 65.7805 19.2635H58.9645V29.0476ZM58.9645 15.669H65.1392C66.1733 15.669 67.103 15.4702 67.9283 15.0724C68.7635 14.6747 69.4247 14.1179 69.9119 13.402C70.4091 12.6761 70.6577 11.821 70.6577 10.8366C70.6577 9.57386 70.2152 8.51491 69.3303 7.6598C68.4453 6.80469 67.0881 6.37713 65.2585 6.37713H58.9645V15.669ZM88.1452 33.5071C86.6935 33.5071 85.381 33.2386 84.2077 32.7017C83.0344 32.1548 82.1048 31.3643 81.4187 30.3303C80.7425 29.2962 80.4045 28.0284 80.4045 26.527C80.4045 25.2344 80.6531 24.1705 81.1502 23.3352C81.6474 22.5 82.3185 21.8388 83.1637 21.3516C84.0089 20.8643 84.9535 20.4964 85.9975 20.2479C87.0415 19.9993 88.1055 19.8104 89.1893 19.6811C90.5614 19.522 91.6751 19.3928 92.5302 19.2933C93.3853 19.1839 94.0067 19.0099 94.3945 18.7713C94.7823 18.5327 94.9762 18.1449 94.9762 17.608V17.5036C94.9762 16.201 94.6083 15.1918 93.8725 14.4759C93.1467 13.7599 92.0629 13.402 90.6211 13.402C89.1197 13.402 87.9364 13.7351 87.0714 14.4013C86.2163 15.0575 85.6246 15.7884 85.2965 16.5938L81.1055 15.6392C81.6026 14.2472 82.3285 13.1236 83.283 12.2685C84.2475 11.4034 85.3562 10.777 86.609 10.3892C87.8619 9.99148 89.1793 9.79261 90.5614 9.79261C91.4762 9.79261 92.4457 9.90199 93.4698 10.1207C94.5039 10.3295 95.4684 10.7173 96.3633 11.2841C97.2681 11.8509 98.0089 12.6612 98.5856 13.7152C99.1623 14.7592 99.4506 16.1165 99.4506 17.7869V33H95.0955V29.8679H94.9165C94.6282 30.4446 94.1957 31.0114 93.619 31.5682C93.0423 32.125 92.3015 32.5874 91.3967 32.9553C90.4918 33.3232 89.408 33.5071 88.1452 33.5071ZM89.1147 29.9276C90.3477 29.9276 91.4016 29.6839 92.2766 29.1967C93.1616 28.7095 93.8327 28.0732 94.2901 27.2876C94.7575 26.4922 94.9911 25.642 94.9911 24.7372V21.7841C94.832 21.9432 94.5238 22.0923 94.0664 22.2315C93.619 22.3608 93.1069 22.4751 92.5302 22.5746C91.9535 22.6641 91.3917 22.7486 90.8448 22.8281C90.2979 22.8977 89.8406 22.9574 89.4727 23.0071C88.6076 23.1165 87.8171 23.3004 87.1012 23.5589C86.3952 23.8175 85.8285 24.1903 85.4009 24.6776C84.9833 25.1548 84.7745 25.7912 84.7745 26.5866C84.7745 27.6903 85.1822 28.5256 85.9975 29.0923C86.8129 29.6491 87.8519 29.9276 89.1147 29.9276ZM105.39 33V10.0909H109.701V13.7301H109.939C110.357 12.4972 111.093 11.5277 112.147 10.8217C113.211 10.1058 114.414 9.74787 115.756 9.74787C116.035 9.74787 116.363 9.75781 116.741 9.7777C117.128 9.79758 117.432 9.82244 117.65 9.85227V14.1179C117.471 14.0682 117.153 14.0135 116.696 13.9538C116.238 13.8842 115.781 13.8494 115.324 13.8494C114.27 13.8494 113.33 14.0732 112.505 14.5206C111.689 14.9581 111.043 15.5696 110.566 16.3551C110.089 17.1307 109.85 18.0156 109.85 19.0099V33H105.39ZM125.969 19.3977V33H121.51V10.0909H125.79V13.8196H126.074C126.6 12.6065 127.426 11.6321 128.549 10.8963C129.683 10.1605 131.11 9.79261 132.83 9.79261C134.391 9.79261 135.758 10.1207 136.931 10.777C138.105 11.4233 139.015 12.3878 139.661 13.6705C140.307 14.9531 140.63 16.5391 140.63 18.4283V33H136.171V18.9652C136.171 17.3047 135.738 16.0071 134.873 15.0724C134.008 14.1278 132.82 13.6555 131.309 13.6555C130.275 13.6555 129.355 13.8793 128.549 14.3267C127.754 14.7741 127.123 15.4304 126.655 16.2955C126.198 17.1506 125.969 18.1847 125.969 19.3977ZM146.611 33V10.0909H151.071V33H146.611ZM148.863 6.55611C148.088 6.55611 147.422 6.29758 146.865 5.78054C146.318 5.25355 146.044 4.62713 146.044 3.90128C146.044 3.16548 146.318 2.53906 146.865 2.02202C147.422 1.49503 148.088 1.23153 148.863 1.23153C149.639 1.23153 150.3 1.49503 150.847 2.02202C151.404 2.53906 151.682 3.16548 151.682 3.90128C151.682 4.62713 151.404 5.25355 150.847 5.78054C150.3 6.29758 149.639 6.55611 148.863 6.55611ZM160.59 10.0909L165.646 19.0099L170.747 10.0909H175.624L168.48 21.5455L175.684 33H170.807L165.646 24.4389L160.501 33H155.608L162.738 21.5455L155.698 10.0909H160.59Z" fill="white"/>
<circle cx="31.75" cy="5" r="5" fill="#A520E4"/>
<circle cx="17.875" cy="18" r="5" fill="#4EE39D"/>
<circle cx="31.75" cy="18" r="5" fill="#4EE39D"/>
<circle cx="5" cy="31.25" r="5" fill="#A520E4"/>
<circle cx="18" cy="31.25" r="5" fill="#4EE39D"/>
<circle cx="32" cy="31.25" r="5" fill="#A520E4"/>
</svg>
