<svg xmlns="http://www.w3.org/2000/svg" width="188" height="37" viewBox="0 0 188 37" fill="none"><path d="M52.302 5.264C53.058 5.292 54.066 5.32 55.326 5.348C56.586 5.376 57.846 5.39 59.106 5.39C60.478 5.39 61.794 5.376 63.054 5.348C64.342 5.32 65.252 5.306 65.784 5.306C69.424 5.306 72.14 5.922 73.932 7.154C75.752 8.386 76.662 9.968 76.662 11.9C76.662 12.88 76.34 13.888 75.696 14.924C75.052 15.932 74.058 16.842 72.714 17.654C71.398 18.438 69.704 18.984 67.632 19.292V19.376C70.376 19.544 72.56 20.02 74.184 20.804C75.836 21.56 77.026 22.47 77.754 23.534C78.482 24.598 78.846 25.704 78.846 26.852C78.846 29.568 77.768 31.612 75.612 32.984C73.456 34.328 70.502 35 66.75 35C66.078 35 65.098 34.986 63.81 34.958C62.522 34.902 60.982 34.874 59.19 34.874C57.874 34.874 56.586 34.888 55.326 34.916C54.066 34.916 53.058 34.944 52.302 35V34.16C53.17 34.104 53.814 33.992 54.234 33.824C54.682 33.656 54.976 33.32 55.116 32.816C55.284 32.312 55.368 31.556 55.368 30.548V9.716C55.368 8.68 55.284 7.924 55.116 7.448C54.976 6.944 54.682 6.608 54.234 6.44C53.814 6.244 53.17 6.132 52.302 6.104V5.264ZM65.406 6.104C64.37 6.104 63.698 6.342 63.39 6.818C63.11 7.294 62.97 8.26 62.97 9.716V30.548C62.97 32.004 63.152 32.956 63.516 33.404C63.88 33.824 64.636 34.034 65.784 34.034C67.576 34.034 68.878 33.404 69.69 32.144C70.53 30.856 70.95 29.036 70.95 26.684C70.95 24.528 70.418 22.862 69.354 21.686C68.318 20.51 66.582 19.922 64.146 19.922H60.828C60.828 19.922 60.828 19.81 60.828 19.586C60.828 19.334 60.828 19.208 60.828 19.208H64.44C65.644 19.208 66.568 18.9 67.212 18.284C67.856 17.64 68.304 16.8 68.556 15.764C68.808 14.7 68.934 13.566 68.934 12.362C68.934 10.29 68.654 8.736 68.094 7.7C67.562 6.636 66.666 6.104 65.406 6.104ZM86.342 35.294C84.466 35.294 83.094 34.804 82.226 33.824C81.386 32.816 80.966 31.612 80.966 30.212C80.966 29.036 81.232 28.07 81.764 27.314C82.324 26.53 83.038 25.9 83.906 25.424C84.774 24.948 85.684 24.556 86.636 24.248C87.588 23.912 88.498 23.59 89.366 23.282C90.234 22.946 90.934 22.582 91.466 22.19C91.998 21.77 92.264 21.238 92.264 20.594V17.108C92.264 16.492 92.166 15.918 91.97 15.386C91.802 14.826 91.48 14.378 91.004 14.042C90.556 13.678 89.926 13.496 89.114 13.496C88.61 13.496 88.12 13.566 87.644 13.706C87.168 13.846 86.748 14.07 86.384 14.378C87.28 14.686 87.938 15.148 88.358 15.764C88.806 16.38 89.03 17.066 89.03 17.822C89.03 18.858 88.666 19.684 87.938 20.3C87.238 20.888 86.398 21.182 85.418 21.182C84.354 21.182 83.528 20.846 82.94 20.174C82.38 19.502 82.1 18.69 82.1 17.738C82.1 16.898 82.31 16.198 82.73 15.638C83.15 15.05 83.766 14.518 84.578 14.042C85.39 13.566 86.37 13.216 87.518 12.992C88.666 12.768 89.884 12.656 91.172 12.656C92.488 12.656 93.692 12.796 94.784 13.076C95.904 13.328 96.856 13.846 97.64 14.63C98.256 15.274 98.648 16.058 98.816 16.982C98.984 17.906 99.068 19.082 99.068 20.51V31.85C99.068 32.55 99.124 33.04 99.236 33.32C99.376 33.572 99.586 33.698 99.866 33.698C100.146 33.698 100.398 33.628 100.622 33.488C100.846 33.348 101.056 33.194 101.252 33.026L101.714 33.74C101.098 34.244 100.37 34.636 99.53 34.916C98.69 35.168 97.78 35.294 96.8 35.294C95.064 35.294 93.902 34.958 93.314 34.286C92.726 33.614 92.418 32.844 92.39 31.976C91.746 33.012 90.934 33.824 89.954 34.412C88.974 35 87.77 35.294 86.342 35.294ZM90.08 32.27C90.5 32.27 90.878 32.186 91.214 32.018C91.578 31.822 91.928 31.5 92.264 31.052V22.316C91.956 22.848 91.55 23.31 91.046 23.702C90.542 24.066 90.024 24.472 89.492 24.92C88.988 25.34 88.554 25.872 88.19 26.516C87.854 27.16 87.686 28.014 87.686 29.078C87.686 30.226 87.91 31.052 88.358 31.556C88.834 32.032 89.408 32.27 90.08 32.27ZM117.775 12.656C118.727 12.656 119.483 12.866 120.043 13.286C120.603 13.678 121.009 14.196 121.261 14.84C121.513 15.456 121.639 16.072 121.639 16.688C121.639 17.836 121.303 18.76 120.631 19.46C119.987 20.16 119.133 20.51 118.069 20.51C116.949 20.51 116.095 20.258 115.507 19.754C114.919 19.222 114.625 18.522 114.625 17.654C114.625 16.786 114.807 16.072 115.171 15.512C115.563 14.952 116.039 14.476 116.599 14.084C116.179 14.028 115.773 14.084 115.381 14.252C114.765 14.392 114.219 14.714 113.743 15.218C113.267 15.694 112.889 16.254 112.609 16.898C112.357 17.514 112.231 18.158 112.231 18.83V30.674C112.231 32.018 112.525 32.928 113.113 33.404C113.729 33.88 114.695 34.118 116.011 34.118V35C115.367 34.972 114.415 34.944 113.155 34.916C111.895 34.86 110.593 34.832 109.249 34.832C108.045 34.832 106.827 34.86 105.595 34.916C104.391 34.944 103.495 34.972 102.907 35V34.118C103.831 34.118 104.475 33.908 104.839 33.488C105.231 33.068 105.427 32.27 105.427 31.094V17.822C105.427 16.562 105.245 15.638 104.881 15.05C104.517 14.434 103.859 14.126 102.907 14.126V13.244C103.803 13.328 104.671 13.37 105.511 13.37C106.771 13.37 107.961 13.328 109.081 13.244C110.229 13.132 111.279 12.978 112.231 12.782V16.226C112.567 15.498 113.001 14.868 113.533 14.336C114.093 13.804 114.723 13.398 115.423 13.118C116.151 12.81 116.935 12.656 117.775 12.656ZM138.886 12.656C140.118 12.656 141.098 12.81 141.826 13.118C142.582 13.426 143.156 13.818 143.548 14.294C143.996 14.826 144.318 15.512 144.514 16.352C144.738 17.192 144.85 18.326 144.85 19.754V31.094C144.85 32.27 145.032 33.068 145.396 33.488C145.788 33.908 146.446 34.118 147.37 34.118V35C146.81 34.972 145.97 34.944 144.85 34.916C143.758 34.86 142.694 34.832 141.658 34.832C140.51 34.832 139.404 34.86 138.34 34.916C137.276 34.944 136.478 34.972 135.946 35V34.118C136.73 34.118 137.276 33.908 137.584 33.488C137.892 33.068 138.046 32.27 138.046 31.094V17.738C138.046 17.094 137.976 16.548 137.836 16.1C137.696 15.624 137.458 15.274 137.122 15.05C136.786 14.798 136.31 14.672 135.694 14.672C134.714 14.672 133.874 15.05 133.174 15.806C132.474 16.534 132.124 17.472 132.124 18.62V31.094C132.124 32.27 132.278 33.068 132.586 33.488C132.894 33.908 133.44 34.118 134.224 34.118V35C133.692 34.972 132.922 34.944 131.914 34.916C130.906 34.86 129.884 34.832 128.848 34.832C127.7 34.832 126.552 34.86 125.404 34.916C124.256 34.944 123.388 34.972 122.8 35V34.118C123.724 34.118 124.368 33.908 124.732 33.488C125.124 33.068 125.32 32.27 125.32 31.094V17.822C125.32 16.562 125.138 15.638 124.774 15.05C124.41 14.434 123.752 14.126 122.8 14.126V13.244C123.696 13.328 124.564 13.37 125.404 13.37C126.664 13.37 127.854 13.328 128.974 13.244C130.122 13.132 131.172 12.978 132.124 12.782V16.184C132.796 14.896 133.706 13.986 134.854 13.454C136.03 12.922 137.374 12.656 138.886 12.656ZM154.432 2.282C155.748 2.282 156.77 2.576 157.498 3.164C158.254 3.752 158.632 4.606 158.632 5.726C158.632 6.846 158.254 7.7 157.498 8.288C156.77 8.876 155.748 9.17 154.432 9.17C153.116 9.17 152.08 8.876 151.324 8.288C150.596 7.7 150.232 6.846 150.232 5.726C150.232 4.606 150.596 3.752 151.324 3.164C152.08 2.576 153.116 2.282 154.432 2.282ZM158.128 12.782V31.094C158.128 32.27 158.31 33.068 158.674 33.488C159.066 33.908 159.724 34.118 160.648 34.118V35C160.088 34.972 159.262 34.944 158.17 34.916C157.078 34.86 155.972 34.832 154.852 34.832C153.732 34.832 152.584 34.86 151.408 34.916C150.26 34.944 149.392 34.972 148.804 35V34.118C149.728 34.118 150.372 33.908 150.736 33.488C151.128 33.068 151.324 32.27 151.324 31.094V17.822C151.324 16.562 151.142 15.638 150.778 15.05C150.414 14.434 149.756 14.126 148.804 14.126V13.244C149.7 13.328 150.568 13.37 151.408 13.37C152.668 13.37 153.858 13.328 154.978 13.244C156.126 13.132 157.176 12.978 158.128 12.782ZM172.208 13.244V14.126C171.648 14.126 171.242 14.252 170.99 14.504C170.766 14.756 170.794 15.106 171.074 15.554L182.078 32.018C182.386 32.438 182.722 32.872 183.086 33.32C183.45 33.768 183.87 34.034 184.346 34.118V35C183.87 34.972 183.156 34.944 182.204 34.916C181.252 34.86 180.3 34.832 179.348 34.832C178.284 34.832 177.206 34.86 176.114 34.916C175.05 34.944 174.252 34.972 173.72 35V34.118C174.28 34.118 174.672 33.992 174.896 33.74C175.148 33.488 175.134 33.138 174.854 32.69L163.85 16.226C163.43 15.554 163.052 15.064 162.716 14.756C162.38 14.42 162.002 14.21 161.582 14.126V13.244C162.114 13.272 162.926 13.314 164.018 13.37C165.11 13.398 166.188 13.412 167.252 13.412C168.204 13.412 169.142 13.398 170.066 13.37C171.018 13.314 171.732 13.272 172.208 13.244ZM170.528 25.13C170.528 25.13 170.556 25.298 170.612 25.634C170.696 25.942 170.738 26.096 170.738 26.096L169.688 27.482C168.792 28.63 168.288 29.694 168.176 30.674C168.092 31.654 168.33 32.466 168.89 33.11C169.45 33.726 170.22 34.076 171.2 34.16V35C170.668 34.972 169.982 34.958 169.142 34.958C168.302 34.93 167.49 34.916 166.706 34.916C165.922 34.888 165.278 34.874 164.774 34.874C163.626 34.874 162.66 34.916 161.876 35V34.16C162.576 33.852 163.22 33.446 163.808 32.942C164.424 32.41 165.082 31.696 165.782 30.8L170.528 25.13ZM183.002 13.244V14.084C182.414 14.308 181.784 14.714 181.112 15.302C180.468 15.862 179.796 16.562 179.096 17.402L174.518 22.946C174.518 22.946 174.476 22.792 174.392 22.484C174.336 22.148 174.308 21.98 174.308 21.98L176.03 19.754C177.234 18.27 177.724 16.982 177.5 15.89C177.276 14.798 176.422 14.196 174.938 14.084V13.244C175.778 13.272 176.674 13.3 177.626 13.328C178.578 13.356 179.404 13.37 180.104 13.37C181.252 13.37 182.218 13.328 183.002 13.244Z" fill="#1B1A1A"></path><circle cx="31.75" cy="5" r="5" fill="#FA4529"></circle><circle cx="17.875" cy="18" r="5" fill="#1B1A1A"></circle><circle cx="31.75" cy="18" r="5" fill="#1B1A1A"></circle><circle cx="5" cy="31.25" r="5" fill="#FA4529"></circle><circle cx="18" cy="31.25" r="5" fill="#1B1A1A"></circle><circle cx="32" cy="31.25" r="5" fill="#FA4529"></circle></svg>