<svg width="185" height="36" viewBox="0 0 185 36" fill="none" xmlns="http://www.w3.org/2000/svg">
<path d="M66.774 18.006C68.342 18.286 69.672 19.112 70.764 20.484C71.856 21.856 72.402 23.41 72.402 25.146C72.402 26.63 72.01 27.974 71.226 29.178C70.47 30.354 69.364 31.292 67.908 31.992C66.452 32.664 64.758 33 62.826 33H51.15V3.81H62.28C64.268 3.81 65.976 4.146 67.404 4.818C68.832 5.49 69.91 6.4 70.638 7.548C71.366 8.668 71.73 9.928 71.73 11.328C71.73 13.008 71.282 14.408 70.386 15.528C69.49 16.648 68.286 17.474 66.774 18.006ZM55.938 16.074H61.86C63.428 16.074 64.646 15.724 65.514 15.024C66.41 14.296 66.858 13.26 66.858 11.916C66.858 10.6 66.41 9.578 65.514 8.85C64.646 8.094 63.428 7.716 61.86 7.716H55.938V16.074ZM62.406 29.094C64.03 29.094 65.304 28.702 66.228 27.918C67.152 27.134 67.614 26.042 67.614 24.642C67.614 23.214 67.124 22.08 66.144 21.24C65.164 20.4 63.862 19.98 62.238 19.98H55.938V29.094H62.406ZM76.0091 21.324C76.0091 19 76.4851 16.942 77.4371 15.15C78.4171 13.358 79.7331 11.972 81.3851 10.992C83.0651 9.984 84.9131 9.48 86.9291 9.48C88.7491 9.48 90.3311 9.844 91.6751 10.572C93.0471 11.272 94.1391 12.154 94.9511 13.218V9.858H99.7811V33H94.9511V29.556C94.1391 30.648 93.0331 31.558 91.6331 32.286C90.2331 33.014 88.6371 33.378 86.8451 33.378C84.8571 33.378 83.0371 32.874 81.3851 31.866C79.7331 30.83 78.4171 29.402 77.4371 27.582C76.4851 25.734 76.0091 23.648 76.0091 21.324ZM94.9511 21.408C94.9511 19.812 94.6151 18.426 93.9431 17.25C93.2991 16.074 92.4451 15.178 91.3811 14.562C90.3171 13.946 89.1691 13.638 87.9371 13.638C86.7051 13.638 85.5571 13.946 84.4931 14.562C83.4291 15.15 82.5611 16.032 81.8891 17.208C81.2451 18.356 80.9231 19.728 80.9231 21.324C80.9231 22.92 81.2451 24.32 81.8891 25.524C82.5611 26.728 83.4291 27.652 84.4931 28.296C85.5851 28.912 86.7331 29.22 87.9371 29.22C89.1691 29.22 90.3171 28.912 91.3811 28.296C92.4451 27.68 93.2991 26.784 93.9431 25.608C94.6151 24.404 94.9511 23.004 94.9511 21.408ZM110.858 13.218C111.558 12.042 112.482 11.132 113.63 10.488C114.806 9.816 116.192 9.48 117.788 9.48V14.436H116.57C114.694 14.436 113.266 14.912 112.286 15.864C111.334 16.816 110.858 18.468 110.858 20.82V33H106.07V9.858H110.858V13.218ZM133.865 9.48C135.685 9.48 137.309 9.858 138.737 10.614C140.193 11.37 141.327 12.49 142.139 13.974C142.951 15.458 143.357 17.25 143.357 19.35V33H138.611V20.064C138.611 17.992 138.093 16.41 137.057 15.318C136.021 14.198 134.607 13.638 132.815 13.638C131.023 13.638 129.595 14.198 128.531 15.318C127.495 16.41 126.977 17.992 126.977 20.064V33H122.189V9.858H126.977V12.504C127.761 11.552 128.755 10.81 129.959 10.278C131.191 9.746 132.493 9.48 133.865 9.48ZM151.9 6.792C151.032 6.792 150.304 6.498 149.716 5.91C149.128 5.322 148.834 4.594 148.834 3.726C148.834 2.858 149.128 2.13 149.716 1.542C150.304 0.953999 151.032 0.659998 151.9 0.659998C152.74 0.659998 153.454 0.953999 154.042 1.542C154.63 2.13 154.924 2.858 154.924 3.726C154.924 4.594 154.63 5.322 154.042 5.91C153.454 6.498 152.74 6.792 151.9 6.792ZM154.252 9.858V33H149.464V9.858H154.252ZM170.451 21.282L177.927 33H172.509L167.511 25.146L162.807 33H157.809L165.285 21.618L157.809 9.858H163.227L168.225 17.712L172.929 9.858H177.927L170.451 21.282Z" fill="white"/>
<circle cx="30.9311" cy="4.82759" r="4.82759" fill="#25A1AC"/>
<circle cx="17.5346" cy="17.3793" r="4.82759" fill="white"/>
<circle cx="30.9311" cy="17.3793" r="4.82759" fill="white"/>
<circle cx="5.10395" cy="30.1724" r="4.82759" fill="#25A1AC"/>
<circle cx="17.6557" cy="30.1724" r="4.82759" fill="white"/>
<circle cx="31.1733" cy="30.1724" r="4.82759" fill="#25A1AC"/>
</svg>
